<?xml version="1.0" standalone="no"?>
<!DOCTYPE svg PUBLIC "-//W3C//DTD SVG 20010904//EN"
 "http://www.w3.org/TR/2001/REC-SVG-20010904/DTD/svg10.dtd">
<svg version="1.0" xmlns="http://www.w3.org/2000/svg"
 width="96.000000pt" height="96.000000pt" viewBox="0 0 96.000000 96.000000"
 preserveAspectRatio="xMidYMid meet">
<metadata>
Created by potrace 1.14, written by Peter Selinger 2001-2017
</metadata>
<g transform="translate(0.000000,96.000000) scale(0.100000,-0.100000)"
fill="#000000" stroke="none">
<path d="M15 593 c2 -427 -10 -393 140 -393 55 0 106 5 111 10 6 6 7 32 3 68
-4 31 -8 87 -8 123 -1 73 4 79 60 79 45 0 49 -25 42 -250 -5 -148 -3 -200 5
-200 7 0 12 -7 12 -15 0 -12 18 -15 99 -15 l99 0 -6 85 -5 85 106 0 c58 0 108
4 111 9 3 5 21 12 40 15 32 6 57 28 119 105 25 31 25 265 0 311 -50 89 -114
128 -228 138 l-80 7 -7 40 c-4 22 -7 60 -8 85 0 25 -4 50 -8 57 -5 9 -85 11
-303 11 l-296 -1 2 -354z m343 127 l2 -40 -44 0 c-46 0 -56 9 -56 56 0 22 4
24 48 24 l47 0 3 -40z m385 -182 c11 -14 17 -37 17 -72 0 -44 -4 -56 -29 -80
-26 -25 -34 -27 -97 -24 l-69 3 -3 48 c-2 33 2 52 12 63 9 8 16 28 16 44 0 17
7 33 18 39 27 16 114 2 135 -21z m-200 -515 c-7 -2 -21 -2 -30 0 -10 3 -4 5
12 5 17 0 24 -2 18 -5z"/>
</g>
</svg>
